<mxfile host="app.diagrams.net" modified="2024-09-03T10:02:16.047Z" agent="Mozilla/5.0 (Windows NT 10.0; Win64; x64) AppleWebKit/537.36 (KHTML, like Gecko) Chrome/128.0.0.0 Safari/537.36" etag="ECwl-7QcZ4wYRV-QdizD" version="24.4.13" type="device">
  <diagram id="C5RBs43oDa-KdzZeNtuy" name="Page-1">
    <mxGraphModel dx="1750" dy="928" grid="1" gridSize="10" guides="1" tooltips="1" connect="1" arrows="1" fold="1" page="1" pageScale="1" pageWidth="827" pageHeight="1169" math="0" shadow="0">
      <root>
        <mxCell id="WIyWlLk6GJQsqaUBKTNV-0" />
        <mxCell id="WIyWlLk6GJQsqaUBKTNV-1" parent="WIyWlLk6GJQsqaUBKTNV-0" />
        <mxCell id="guKuluZm2_igPZCPTLYO-44" value="" style="edgeStyle=orthogonalEdgeStyle;rounded=0;orthogonalLoop=1;jettySize=auto;html=1;" edge="1" parent="WIyWlLk6GJQsqaUBKTNV-1" source="guKuluZm2_igPZCPTLYO-35" target="guKuluZm2_igPZCPTLYO-40">
          <mxGeometry relative="1" as="geometry" />
        </mxCell>
        <mxCell id="guKuluZm2_igPZCPTLYO-35" value="Data Preparation" style="rounded=0;whiteSpace=wrap;html=1;absoluteArcSize=1;arcSize=14;strokeWidth=2;dashed=1;verticalAlign=top;fontFamily=Times New Roman;" vertex="1" parent="WIyWlLk6GJQsqaUBKTNV-1">
          <mxGeometry x="20" y="210" width="400" height="520" as="geometry" />
        </mxCell>
        <mxCell id="guKuluZm2_igPZCPTLYO-1" value="Evaluate function values on grid" style="rounded=0;whiteSpace=wrap;html=1;absoluteArcSize=1;arcSize=14;strokeWidth=1;fontFamily=Times New Roman;fontSize=12;spacing=5;" vertex="1" parent="WIyWlLk6GJQsqaUBKTNV-1">
          <mxGeometry x="30.5" y="640" width="170" height="80" as="geometry" />
        </mxCell>
        <mxCell id="guKuluZm2_igPZCPTLYO-18" style="edgeStyle=orthogonalEdgeStyle;rounded=0;orthogonalLoop=1;jettySize=auto;html=1;exitX=0.5;exitY=1;exitDx=0;exitDy=0;entryX=0.5;entryY=0;entryDx=0;entryDy=0;fontFamily=Times New Roman;" edge="1" parent="WIyWlLk6GJQsqaUBKTNV-1" source="guKuluZm2_igPZCPTLYO-2" target="guKuluZm2_igPZCPTLYO-1">
          <mxGeometry relative="1" as="geometry" />
        </mxCell>
        <mxCell id="guKuluZm2_igPZCPTLYO-2" value="Compute parameters using desired PDE" style="rounded=0;whiteSpace=wrap;html=1;absoluteArcSize=1;arcSize=14;strokeWidth=1;fontFamily=Times New Roman;fontSize=12;perimeterSpacing=0;spacing=5;" vertex="1" parent="WIyWlLk6GJQsqaUBKTNV-1">
          <mxGeometry x="30.5" y="540" width="170" height="80" as="geometry" />
        </mxCell>
        <mxCell id="guKuluZm2_igPZCPTLYO-3" value="Compute basis coefficients" style="rounded=0;whiteSpace=wrap;html=1;absoluteArcSize=1;arcSize=14;strokeWidth=1;fontFamily=Times New Roman;fontSize=12;spacing=5;" vertex="1" parent="WIyWlLk6GJQsqaUBKTNV-1">
          <mxGeometry x="239.5" y="540" width="170" height="80" as="geometry" />
        </mxCell>
        <mxCell id="guKuluZm2_igPZCPTLYO-16" style="edgeStyle=orthogonalEdgeStyle;rounded=0;orthogonalLoop=1;jettySize=auto;html=1;exitX=0.5;exitY=1;exitDx=0;exitDy=0;entryX=0.5;entryY=0;entryDx=0;entryDy=0;fontFamily=Times New Roman;" edge="1" parent="WIyWlLk6GJQsqaUBKTNV-1" source="guKuluZm2_igPZCPTLYO-4" target="guKuluZm2_igPZCPTLYO-3">
          <mxGeometry relative="1" as="geometry" />
        </mxCell>
        <mxCell id="guKuluZm2_igPZCPTLYO-4" value="Retrieve Data" style="rounded=0;whiteSpace=wrap;html=1;absoluteArcSize=1;arcSize=14;strokeWidth=1;fontFamily=Times New Roman;fontSize=12;spacing=5;" vertex="1" parent="WIyWlLk6GJQsqaUBKTNV-1">
          <mxGeometry x="239.5" y="440" width="170" height="80" as="geometry" />
        </mxCell>
        <mxCell id="guKuluZm2_igPZCPTLYO-17" style="edgeStyle=orthogonalEdgeStyle;rounded=0;orthogonalLoop=1;jettySize=auto;html=1;exitX=0.5;exitY=1;exitDx=0;exitDy=0;entryX=0.5;entryY=0;entryDx=0;entryDy=0;fontFamily=Times New Roman;" edge="1" parent="WIyWlLk6GJQsqaUBKTNV-1" source="guKuluZm2_igPZCPTLYO-5" target="guKuluZm2_igPZCPTLYO-2">
          <mxGeometry relative="1" as="geometry" />
        </mxCell>
        <mxCell id="guKuluZm2_igPZCPTLYO-5" value="Generate random functions coefficients" style="rounded=0;whiteSpace=wrap;html=1;absoluteArcSize=1;arcSize=14;strokeWidth=1;fontFamily=Times New Roman;fontSize=12;spacing=5;" vertex="1" parent="WIyWlLk6GJQsqaUBKTNV-1">
          <mxGeometry x="30.5" y="440" width="170" height="80" as="geometry" />
        </mxCell>
        <mxCell id="guKuluZm2_igPZCPTLYO-6" value="Problem Specification" style="rounded=0;whiteSpace=wrap;html=1;absoluteArcSize=1;arcSize=14;strokeWidth=1;fontFamily=Times New Roman;fontSize=12;spacing=5;" vertex="1" parent="WIyWlLk6GJQsqaUBKTNV-1">
          <mxGeometry x="135" y="240" width="170" height="80" as="geometry" />
        </mxCell>
        <mxCell id="guKuluZm2_igPZCPTLYO-14" style="edgeStyle=orthogonalEdgeStyle;rounded=0;orthogonalLoop=1;jettySize=auto;html=1;exitX=0;exitY=0.5;exitDx=0;exitDy=0;exitPerimeter=0;entryX=0.5;entryY=0;entryDx=0;entryDy=0;fontFamily=Times New Roman;" edge="1" parent="WIyWlLk6GJQsqaUBKTNV-1" source="guKuluZm2_igPZCPTLYO-10" target="guKuluZm2_igPZCPTLYO-5">
          <mxGeometry relative="1" as="geometry" />
        </mxCell>
        <mxCell id="guKuluZm2_igPZCPTLYO-15" style="edgeStyle=orthogonalEdgeStyle;rounded=0;orthogonalLoop=1;jettySize=auto;html=1;exitX=1;exitY=0.5;exitDx=0;exitDy=0;exitPerimeter=0;fontFamily=Times New Roman;" edge="1" parent="WIyWlLk6GJQsqaUBKTNV-1" source="guKuluZm2_igPZCPTLYO-10" target="guKuluZm2_igPZCPTLYO-4">
          <mxGeometry relative="1" as="geometry" />
        </mxCell>
        <mxCell id="guKuluZm2_igPZCPTLYO-10" value="Does data need&lt;div&gt;to be generated?&lt;/div&gt;" style="strokeWidth=1;html=1;shape=mxgraph.flowchart.decision;whiteSpace=wrap;verticalAlign=middle;align=center;fontFamily=Times New Roman;fontSize=12;" vertex="1" parent="WIyWlLk6GJQsqaUBKTNV-1">
          <mxGeometry x="135" y="340" width="170" height="80" as="geometry" />
        </mxCell>
        <mxCell id="guKuluZm2_igPZCPTLYO-19" style="edgeStyle=orthogonalEdgeStyle;rounded=0;orthogonalLoop=1;jettySize=auto;html=1;exitX=0.5;exitY=1;exitDx=0;exitDy=0;entryX=0.5;entryY=0;entryDx=0;entryDy=0;entryPerimeter=0;fontFamily=Times New Roman;" edge="1" parent="WIyWlLk6GJQsqaUBKTNV-1" source="guKuluZm2_igPZCPTLYO-6" target="guKuluZm2_igPZCPTLYO-10">
          <mxGeometry relative="1" as="geometry" />
        </mxCell>
        <mxCell id="guKuluZm2_igPZCPTLYO-45" value="" style="edgeStyle=orthogonalEdgeStyle;rounded=0;orthogonalLoop=1;jettySize=auto;html=1;" edge="1" parent="WIyWlLk6GJQsqaUBKTNV-1" source="guKuluZm2_igPZCPTLYO-40" target="guKuluZm2_igPZCPTLYO-39">
          <mxGeometry relative="1" as="geometry">
            <mxPoint x="430" y="480" as="sourcePoint" />
            <mxPoint x="480" y="430" as="targetPoint" />
          </mxGeometry>
        </mxCell>
        <mxCell id="guKuluZm2_igPZCPTLYO-46" value="" style="edgeStyle=orthogonalEdgeStyle;rounded=0;orthogonalLoop=1;jettySize=auto;html=1;" edge="1" parent="WIyWlLk6GJQsqaUBKTNV-1" source="guKuluZm2_igPZCPTLYO-39" target="guKuluZm2_igPZCPTLYO-38">
          <mxGeometry relative="1" as="geometry">
            <mxPoint x="670" y="430" as="sourcePoint" />
            <mxPoint x="720" y="430" as="targetPoint" />
          </mxGeometry>
        </mxCell>
        <mxCell id="guKuluZm2_igPZCPTLYO-49" value="" style="group" vertex="1" connectable="0" parent="WIyWlLk6GJQsqaUBKTNV-1">
          <mxGeometry x="470" y="210" width="190" height="420" as="geometry" />
        </mxCell>
        <mxCell id="guKuluZm2_igPZCPTLYO-40" value="Data Transformation" style="rounded=0;whiteSpace=wrap;html=1;absoluteArcSize=1;arcSize=14;strokeWidth=2;dashed=1;verticalAlign=top;fontFamily=Times New Roman;" vertex="1" parent="guKuluZm2_igPZCPTLYO-49">
          <mxGeometry width="190" height="420" as="geometry" />
        </mxCell>
        <mxCell id="guKuluZm2_igPZCPTLYO-0" value="Scale input functions based on training dataset" style="rounded=0;whiteSpace=wrap;html=1;absoluteArcSize=1;arcSize=14;strokeWidth=1;fontFamily=Times New Roman;fontSize=12;spacing=5;" vertex="1" parent="guKuluZm2_igPZCPTLYO-49">
          <mxGeometry x="10" y="330" width="170" height="80" as="geometry" />
        </mxCell>
        <mxCell id="guKuluZm2_igPZCPTLYO-11" style="edgeStyle=orthogonalEdgeStyle;rounded=0;orthogonalLoop=1;jettySize=auto;html=1;exitX=0.5;exitY=1;exitDx=0;exitDy=0;entryX=0.5;entryY=0;entryDx=0;entryDy=0;fontFamily=Times New Roman;" edge="1" parent="guKuluZm2_igPZCPTLYO-49" source="guKuluZm2_igPZCPTLYO-7" target="guKuluZm2_igPZCPTLYO-0">
          <mxGeometry relative="1" as="geometry" />
        </mxCell>
        <mxCell id="guKuluZm2_igPZCPTLYO-7" value="Split data into training, testing, and validation datasets" style="rounded=0;whiteSpace=wrap;html=1;absoluteArcSize=1;arcSize=14;strokeWidth=1;fontFamily=Times New Roman;fontSize=12;spacing=5;" vertex="1" parent="guKuluZm2_igPZCPTLYO-49">
          <mxGeometry x="10" y="230" width="170" height="80" as="geometry" />
        </mxCell>
        <mxCell id="guKuluZm2_igPZCPTLYO-12" style="edgeStyle=orthogonalEdgeStyle;rounded=0;orthogonalLoop=1;jettySize=auto;html=1;exitX=0.5;exitY=1;exitDx=0;exitDy=0;entryX=0.5;entryY=0;entryDx=0;entryDy=0;fontFamily=Times New Roman;" edge="1" parent="guKuluZm2_igPZCPTLYO-49" source="guKuluZm2_igPZCPTLYO-8" target="guKuluZm2_igPZCPTLYO-7">
          <mxGeometry relative="1" as="geometry" />
        </mxCell>
        <mxCell id="guKuluZm2_igPZCPTLYO-8" value="Transform functions into basis coefficients" style="rounded=0;whiteSpace=wrap;html=1;absoluteArcSize=1;arcSize=14;strokeWidth=1;fontFamily=Times New Roman;fontSize=12;spacing=5;" vertex="1" parent="guKuluZm2_igPZCPTLYO-49">
          <mxGeometry x="10" y="130" width="170" height="80" as="geometry" />
        </mxCell>
        <mxCell id="guKuluZm2_igPZCPTLYO-13" style="edgeStyle=orthogonalEdgeStyle;rounded=0;orthogonalLoop=1;jettySize=auto;html=1;exitX=0.5;exitY=1;exitDx=0;exitDy=0;entryX=0.5;entryY=0;entryDx=0;entryDy=0;fontFamily=Times New Roman;" edge="1" parent="guKuluZm2_igPZCPTLYO-49" source="guKuluZm2_igPZCPTLYO-9" target="guKuluZm2_igPZCPTLYO-8">
          <mxGeometry relative="1" as="geometry" />
        </mxCell>
        <mxCell id="guKuluZm2_igPZCPTLYO-9" value="Extract input and output functions" style="rounded=0;whiteSpace=wrap;html=1;absoluteArcSize=1;arcSize=14;strokeWidth=1;fontFamily=Times New Roman;fontSize=12;spacing=5;" vertex="1" parent="guKuluZm2_igPZCPTLYO-49">
          <mxGeometry x="10" y="30" width="170" height="80" as="geometry" />
        </mxCell>
        <mxCell id="guKuluZm2_igPZCPTLYO-50" value="" style="group" vertex="1" connectable="0" parent="WIyWlLk6GJQsqaUBKTNV-1">
          <mxGeometry x="710" y="210" width="190" height="420" as="geometry" />
        </mxCell>
        <mxCell id="guKuluZm2_igPZCPTLYO-39" value="Model Training" style="rounded=0;whiteSpace=wrap;html=1;absoluteArcSize=1;arcSize=14;strokeWidth=2;dashed=1;verticalAlign=top;fontFamily=Times New Roman;" vertex="1" parent="guKuluZm2_igPZCPTLYO-50">
          <mxGeometry width="190" height="420" as="geometry" />
        </mxCell>
        <mxCell id="guKuluZm2_igPZCPTLYO-26" style="edgeStyle=orthogonalEdgeStyle;rounded=0;orthogonalLoop=1;jettySize=auto;html=1;exitX=0.5;exitY=1;exitDx=0;exitDy=0;entryX=0.5;entryY=0;entryDx=0;entryDy=0;fontFamily=Times New Roman;" edge="1" parent="guKuluZm2_igPZCPTLYO-50" source="guKuluZm2_igPZCPTLYO-20" target="guKuluZm2_igPZCPTLYO-21">
          <mxGeometry relative="1" as="geometry" />
        </mxCell>
        <mxCell id="guKuluZm2_igPZCPTLYO-20" value="Compute kernel matrix" style="rounded=0;whiteSpace=wrap;html=1;absoluteArcSize=1;arcSize=14;strokeWidth=1;fontFamily=Times New Roman;fontSize=12;spacing=5;" vertex="1" parent="guKuluZm2_igPZCPTLYO-50">
          <mxGeometry x="10" y="130" width="170" height="80" as="geometry" />
        </mxCell>
        <mxCell id="guKuluZm2_igPZCPTLYO-27" style="edgeStyle=orthogonalEdgeStyle;rounded=0;orthogonalLoop=1;jettySize=auto;html=1;exitX=0.5;exitY=1;exitDx=0;exitDy=0;entryX=0.5;entryY=0;entryDx=0;entryDy=0;fontFamily=Times New Roman;" edge="1" parent="guKuluZm2_igPZCPTLYO-50" source="guKuluZm2_igPZCPTLYO-21" target="guKuluZm2_igPZCPTLYO-22">
          <mxGeometry relative="1" as="geometry" />
        </mxCell>
        <mxCell id="guKuluZm2_igPZCPTLYO-21" value="Assemble LSSVR equation matrices" style="rounded=0;whiteSpace=wrap;html=1;absoluteArcSize=1;arcSize=14;strokeWidth=1;fontFamily=Times New Roman;fontSize=12;spacing=5;" vertex="1" parent="guKuluZm2_igPZCPTLYO-50">
          <mxGeometry x="10" y="230" width="170" height="80" as="geometry" />
        </mxCell>
        <mxCell id="guKuluZm2_igPZCPTLYO-22" value="Compute Lagrangian multipliers and bias using least squares" style="rounded=0;whiteSpace=wrap;html=1;absoluteArcSize=1;arcSize=14;strokeWidth=1;fontFamily=Times New Roman;fontSize=12;spacing=5;" vertex="1" parent="guKuluZm2_igPZCPTLYO-50">
          <mxGeometry x="10" y="330" width="170" height="80" as="geometry" />
        </mxCell>
        <mxCell id="guKuluZm2_igPZCPTLYO-25" style="edgeStyle=orthogonalEdgeStyle;rounded=0;orthogonalLoop=1;jettySize=auto;html=1;exitX=0.5;exitY=1;exitDx=0;exitDy=0;fontFamily=Times New Roman;" edge="1" parent="guKuluZm2_igPZCPTLYO-50" source="guKuluZm2_igPZCPTLYO-24" target="guKuluZm2_igPZCPTLYO-20">
          <mxGeometry relative="1" as="geometry" />
        </mxCell>
        <mxCell id="guKuluZm2_igPZCPTLYO-24" value="Reassemble complex inputs and outputs into real representation" style="rounded=0;whiteSpace=wrap;html=1;absoluteArcSize=1;arcSize=14;strokeWidth=1;fontFamily=Times New Roman;fontSize=12;spacing=5;" vertex="1" parent="guKuluZm2_igPZCPTLYO-50">
          <mxGeometry x="10" y="30" width="170" height="80" as="geometry" />
        </mxCell>
        <mxCell id="guKuluZm2_igPZCPTLYO-51" value="" style="group" vertex="1" connectable="0" parent="WIyWlLk6GJQsqaUBKTNV-1">
          <mxGeometry x="950" y="210" width="190" height="520" as="geometry" />
        </mxCell>
        <mxCell id="guKuluZm2_igPZCPTLYO-38" value="Model Evaluation" style="rounded=0;whiteSpace=wrap;html=1;absoluteArcSize=1;arcSize=14;strokeWidth=2;dashed=1;verticalAlign=top;fontFamily=Times New Roman;" vertex="1" parent="guKuluZm2_igPZCPTLYO-51">
          <mxGeometry width="190" height="520" as="geometry" />
        </mxCell>
        <mxCell id="guKuluZm2_igPZCPTLYO-28" style="edgeStyle=orthogonalEdgeStyle;rounded=0;orthogonalLoop=1;jettySize=auto;html=1;exitX=0.5;exitY=1;exitDx=0;exitDy=0;entryX=0.5;entryY=0;entryDx=0;entryDy=0;fontFamily=Times New Roman;" edge="1" parent="guKuluZm2_igPZCPTLYO-51" source="guKuluZm2_igPZCPTLYO-29" target="guKuluZm2_igPZCPTLYO-31">
          <mxGeometry relative="1" as="geometry" />
        </mxCell>
        <mxCell id="guKuluZm2_igPZCPTLYO-29" value="Compute kernel matrix between support vectors and inputs" style="rounded=0;whiteSpace=wrap;html=1;absoluteArcSize=1;arcSize=14;strokeWidth=1;fontFamily=Times New Roman;fontSize=12;spacing=5;" vertex="1" parent="guKuluZm2_igPZCPTLYO-51">
          <mxGeometry x="10" y="130" width="170" height="80" as="geometry" />
        </mxCell>
        <mxCell id="guKuluZm2_igPZCPTLYO-30" style="edgeStyle=orthogonalEdgeStyle;rounded=0;orthogonalLoop=1;jettySize=auto;html=1;exitX=0.5;exitY=1;exitDx=0;exitDy=0;entryX=0.5;entryY=0;entryDx=0;entryDy=0;fontFamily=Times New Roman;" edge="1" parent="guKuluZm2_igPZCPTLYO-51" source="guKuluZm2_igPZCPTLYO-31" target="guKuluZm2_igPZCPTLYO-32">
          <mxGeometry relative="1" as="geometry" />
        </mxCell>
        <mxCell id="guKuluZm2_igPZCPTLYO-31" value="Multiply kernel matrix with Lagrangian multipliers and add bias" style="rounded=0;whiteSpace=wrap;html=1;absoluteArcSize=1;arcSize=14;strokeWidth=1;fontFamily=Times New Roman;fontSize=12;spacing=5;" vertex="1" parent="guKuluZm2_igPZCPTLYO-51">
          <mxGeometry x="10" y="230" width="170" height="80" as="geometry" />
        </mxCell>
        <mxCell id="guKuluZm2_igPZCPTLYO-48" style="edgeStyle=orthogonalEdgeStyle;rounded=0;orthogonalLoop=1;jettySize=auto;html=1;exitX=0.5;exitY=1;exitDx=0;exitDy=0;entryX=0.5;entryY=0;entryDx=0;entryDy=0;" edge="1" parent="guKuluZm2_igPZCPTLYO-51" source="guKuluZm2_igPZCPTLYO-32" target="guKuluZm2_igPZCPTLYO-47">
          <mxGeometry relative="1" as="geometry" />
        </mxCell>
        <mxCell id="guKuluZm2_igPZCPTLYO-32" value="Rearrange output into complex values" style="rounded=0;whiteSpace=wrap;html=1;absoluteArcSize=1;arcSize=14;strokeWidth=1;fontFamily=Times New Roman;fontSize=12;spacing=5;" vertex="1" parent="guKuluZm2_igPZCPTLYO-51">
          <mxGeometry x="10" y="330" width="170" height="80" as="geometry" />
        </mxCell>
        <mxCell id="guKuluZm2_igPZCPTLYO-33" style="edgeStyle=orthogonalEdgeStyle;rounded=0;orthogonalLoop=1;jettySize=auto;html=1;exitX=0.5;exitY=1;exitDx=0;exitDy=0;fontFamily=Times New Roman;" edge="1" parent="guKuluZm2_igPZCPTLYO-51" source="guKuluZm2_igPZCPTLYO-34" target="guKuluZm2_igPZCPTLYO-29">
          <mxGeometry relative="1" as="geometry" />
        </mxCell>
        <mxCell id="guKuluZm2_igPZCPTLYO-34" value="Reasseble complex inputs and scale using the scaler fitted on training dataset inputs" style="rounded=0;whiteSpace=wrap;html=1;absoluteArcSize=1;arcSize=14;strokeWidth=1;fontFamily=Times New Roman;fontSize=12;spacing=5;" vertex="1" parent="guKuluZm2_igPZCPTLYO-51">
          <mxGeometry x="10" y="30" width="170" height="80" as="geometry" />
        </mxCell>
        <mxCell id="guKuluZm2_igPZCPTLYO-47" value="Evaluate approximated output functions at desired coordinates" style="rounded=0;whiteSpace=wrap;html=1;absoluteArcSize=1;arcSize=14;strokeWidth=1;fontFamily=Times New Roman;fontSize=12;spacing=5;" vertex="1" parent="guKuluZm2_igPZCPTLYO-51">
          <mxGeometry x="10" y="430" width="170" height="80" as="geometry" />
        </mxCell>
      </root>
    </mxGraphModel>
  </diagram>
</mxfile>
